{"title":"UFC 119: Mir Vs Cro Cop [SatRiP-XviD-Mp3-ENG][TNTVillage.Scambio","uid":5853390,"size":1461958418,"categoryP":"video","categoryS":"tv_shows","magnet":"?xt=urn:btih:df328db0e2d302e7c66393fc44c857fe76a69132&amp;dn=UFC+119%3A+Mir+Vs+Cro+Cop+%5BSatRiP-XviD-Mp3-ENG%5D%5BTNTVillage.Scambio&amp;tr=udp%3A%2F%2Ftracker.openbittorrent.com%3A80&amp;tr=udp%3A%2F%2Fopen.demonii.com%3A1337&amp;tr=udp%3A%2F%2Ftracker.coppersurfer.tk%3A6969&amp;tr=udp%3A%2F%2Fexodus.desync.com%3A6969","seeders":1,"leechers":3,"uploader":"maxneb","files":2,"time":1285462516,"description":"UFC 119: Mir Vs Cro Cop [SatRiP-XviD-Mp3-ENG][TNTVillage.Scambioetico]\n\n\n\n\n\nGeneral\nComplete name                    : C:\\UFC.119.Mir.vs.Cro.Cop.DSR.XviD-XWT\\Part1.avi\nFormat                           : AVI\nFormat/Info                      : Audio Video Interleave\nFile size                        : 781 MiB\nDuration                         : 1h 33mn\nOverall bit rate                 : 1 164 Kbps\nWriting library                  : MPlayer\n\nVideo\nFormat                           : MPEG-4 Visual\nFormat profile                   : Streaming Video@L1\nFormat settings, BVOP            : Yes\nFormat settings, QPel            : No\nFormat settings, GMC             : No warppoints\nFormat settings, Matrix          : Default\nCodec ID                         : XVID\nCodec ID/Hint                    : XviD\nDuration                         : 1h 33mn\nBit rate                         : 1 024 Kbps\nWidth                            : 640 pixels\nHeight                           : 368 pixels\nDisplay aspect ratio             : 16/9\nFrame rate                       : 25.000 fps\nResolution                       : 24 bits\nColorimetry                      : 4:2:0\nScan type                        : Progressive\nBits/(Pixel*Frame)               : 0.174\nStream size                      : 687 MiB (88%)\nWriting library                  : XviD 1.1.2 (UTC 2006-11-01)\n\nAudio\nFormat                           : MPEG Audio\nFormat version                   : Version 1\nFormat profile                   : Layer 3\nCodec ID                         : 55\nCodec ID/Hint                    : MP3\nDuration                         : 1h 33mn\nBit rate mode                    : Constant\nBit rate                         : 128 Kbps\nChannel(s)                       : 2 channels\nSampling rate                    : 44.1 KHz\nResolution                       : 16 bits\nStream size                      : 85.8 MiB (11%)\nAlignment                        : Aligned on interleaves\nInterleave, duration             : 26 ms (0.65 video frame)\nInterleave, preload duration     : 809 ms\n\n &lt;a href=&quot;\nhttp://uptiki.com/images/ajoh1awitnjchfe3jvec.png&quot; rel=&quot;nofollow&quot; target=&quot;_NEW&quot;&gt;\nhttp://uptiki.com/images/ajoh1awitnjchfe3jvec.png&lt;/a&gt;\n\n &lt;a href=&quot;\nhttp://uptiki.com/images/cdbne938tyh8tf3vl23n.png&quot; rel=&quot;nofollow&quot; target=&quot;_NEW&quot;&gt;\nhttp://uptiki.com/images/cdbne938tyh8tf3vl23n.png&lt;/a&gt;\n\n &lt;a href=&quot;\nhttp://uptiki.com/images/7juut0ql5n26nnr87vq5.png&quot; rel=&quot;nofollow&quot; target=&quot;_NEW&quot;&gt;\nhttp://uptiki.com/images/7juut0ql5n26nnr87vq5.png&lt;/a&gt;\n\n &lt;a href=&quot;\nhttp://uptiki.com/images/y6amp9idht74bg1az54o.png&quot; rel=&quot;nofollow&quot; target=&quot;_NEW&quot;&gt;\nhttp://uptiki.com/images/y6amp9idht74bg1az54o.png&lt;/a&gt;\n\n &lt;a href=&quot;\nhttp://uptiki.com/images/ljowz3irw7t2t49lkr.png&quot; rel=&quot;nofollow&quot; target=&quot;_NEW&quot;&gt;\nhttp://uptiki.com/images/ljowz3irw7t2t49lkr.png&lt;/a&gt;","torrent":{"xt":"urn:btih:df328db0e2d302e7c66393fc44c857fe76a69132","amp;dn":"UFC+119%3A+Mir+Vs+Cro+Cop+%5BSatRiP-XviD-Mp3-ENG%5D%5BTNTVillage.Scambio","amp;tr":["udp%3A%2F%2Ftracker.openbittorrent.com%3A80","udp%3A%2F%2Fopen.demonii.com%3A1337","udp%3A%2F%2Ftracker.coppersurfer.tk%3A6969","udp%3A%2F%2Fexodus.desync.com%3A6969"],"infoHash":"df328db0e2d302e7c66393fc44c857fe76a69132","infoHashBuffer":{"type":"Buffer","data":[223,50,141,176,226,211,2,231,198,99,147,252,68,200,87,254,118,166,145,50]},"announce":[],"urlList":[]}}